<?xml version="1.0" standalone="no"?>
<!DOCTYPE svg PUBLIC "-//W3C//DTD SVG 20010904//EN"
 "http://www.w3.org/TR/2001/REC-SVG-20010904/DTD/svg10.dtd">
<svg version="1.0" xmlns="http://www.w3.org/2000/svg"
 width="1280.000000pt" height="1280.000000pt" viewBox="0 0 1280.000000 1280.000000"
 preserveAspectRatio="xMidYMid meet">
<metadata>
Created by potrace 1.15, written by Peter Selinger 2001-2017
</metadata>
<g transform="translate(0.000000,1280.000000) scale(0.100000,-0.100000)"
fill="#000000" stroke="none">
<path d="M6005 12794 c-22 -2 -98 -9 -170 -15 -653 -54 -1325 -222 -1940 -482
-1126 -478 -2103 -1281 -2797 -2302 -604 -888 -957 -1867 -1075 -2980 -26
-245 -26 -985 0 -1230 73 -688 226 -1290 480 -1890 478 -1126 1281 -2103 2302
-2797 942 -640 2024 -1011 3180 -1089 251 -17 839 -6 1075 20 667 72 1250 222
1845 474 1125 476 2103 1281 2797 2302 603 886 957 1869 1075 2980 26 245 26
985 0 1230 -106 1001 -396 1874 -895 2700 -422 697 -984 1317 -1647 1816 -824
621 -1827 1043 -2850 1199 -337 51 -489 62 -925 65 -228 1 -433 1 -455 -1z
m685 -1074 c1162 -67 2219 -486 3130 -1240 161 -133 527 -499 660 -660 456
-550 778 -1131 989 -1783 177 -547 255 -1047 255 -1637 0 -319 -14 -516 -55
-790 -130 -862 -473 -1685 -996 -2385 -290 -388 -685 -787 -1069 -1077 -1385
-1046 -3190 -1352 -4837 -818 -655 212 -1236 534 -1787 990 -161 133 -527 499
-660 660 -581 702 -962 1488 -1139 2350 -76 372 -105 664 -105 1070 0 319 14
516 55 790 130 863 473 1684 996 2385 160 215 292 366 512 586 220 220 371
352 586 512 997 744 2233 1118 3465 1047z"/>
<path d="M3875 6929 c-175 -26 -367 -130 -478 -261 -138 -164 -197 -323 -197
-539 0 -234 83 -427 254 -586 84 -79 177 -134 296 -175 91 -31 101 -32 250
-32 149 0 159 1 250 32 270 93 461 298 531 570 26 103 26 278 0 387 -98 405
-487 665 -906 604z"/>
<path d="M6275 6929 c-175 -26 -367 -130 -478 -261 -138 -164 -197 -323 -197
-539 0 -234 83 -427 254 -586 84 -79 177 -134 296 -175 91 -31 101 -32 250
-32 149 0 159 1 250 32 270 93 461 298 531 570 26 103 26 278 0 387 -98 405
-487 665 -906 604z"/>
<path d="M8675 6929 c-175 -26 -367 -130 -478 -261 -138 -164 -197 -323 -197
-539 0 -234 83 -427 254 -586 84 -79 177 -134 296 -175 91 -31 101 -32 250
-32 149 0 159 1 250 32 270 93 461 298 531 570 26 103 26 278 0 387 -98 405
-487 665 -906 604z"/>
</g>
</svg>
